{
  "asset": {
    "version": "2.0",
    "generator": "BAJA Chibi Avatar Studio"
  },
  "scene": 0,
  "scenes": [
    {
      "name": "Laki-laki Chibi",
      "nodes": [
        0,
        1,
        2,
        3,
        4,
        5,
        6,
        7,
        8,
        9,
        10,
        11,
        12,
        13,
        14,
        15,
        16,
        17,
        18,
        19
      ],
      "extras": {
        "gender": "male",
        "style": "realistic-chibi",
        "accessoryAnchors": {
          "headwear": [
            0,
            2.35,
            0
          ],
          "eyewear": [
            0,
            1.55,
            -0.64
          ],
          "backItem": [
            0,
            0.68,
            0.52
          ],
          "footwear": [
            0,
            -0.45,
            -0.08
          ]
        }
      }
    }
  ],
  "nodes": [
    {
      "name": "Head",
      "mesh": 0
    },
    {
      "name": "Short hair crown",
      "mesh": 1
    },
    {
      "name": "Hair fringe",
      "mesh": 2
    },
    {
      "name": "Torso",
      "mesh": 3
    },
    {
      "name": "Left arm",
      "mesh": 4
    },
    {
      "name": "Right arm",
      "mesh": 5
    },
    {
      "name": "Left leg",
      "mesh": 6
    },
    {
      "name": "Right leg",
      "mesh": 7
    },
    {
      "name": "Left shoe",
      "mesh": 8
    },
    {
      "name": "Right shoe",
      "mesh": 9
    },
    {
      "name": "Left shoe sole",
      "mesh": 10
    },
    {
      "name": "Right shoe sole",
      "mesh": 11
    },
    {
      "name": "Left eye white",
      "mesh": 12
    },
    {
      "name": "Right eye white",
      "mesh": 13
    },
    {
      "name": "Left iris",
      "mesh": 14
    },
    {
      "name": "Right iris",
      "mesh": 15
    },
    {
      "name": "Nose",
      "mesh": 16
    },
    {
      "name": "Smile",
      "mesh": 17
    },
    {
      "name": "Left cheek",
      "mesh": 18
    },
    {
      "name": "Right cheek",
      "mesh": 19
    }
  ],
  "meshes": [
    {
      "name": "Head",
      "primitives": [
        {
          "attributes": {
            "POSITION": 0,
            "NORMAL": 1
          },
          "indices": 2,
          "material": 0
        }
      ]
    },
    {
      "name": "Short hair crown",
      "primitives": [
        {
          "attributes": {
            "POSITION": 3,
            "NORMAL": 4
          },
          "indices": 5,
          "material": 1
        }
      ]
    },
    {
      "name": "Hair fringe",
      "primitives": [
        {
          "attributes": {
            "POSITION": 6,
            "NORMAL": 7
          },
          "indices": 8,
          "material": 1
        }
      ]
    },
    {
      "name": "Torso",
      "primitives": [
        {
          "attributes": {
            "POSITION": 9,
            "NORMAL": 10
          },
          "indices": 11,
          "material": 2
        }
      ]
    },
    {
      "name": "Left arm",
      "primitives": [
        {
          "attributes": {
            "POSITION": 12,
            "NORMAL": 13
          },
          "indices": 14,
          "material": 0
        }
      ]
    },
    {
      "name": "Right arm",
      "primitives": [
        {
          "attributes": {
            "POSITION": 15,
            "NORMAL": 16
          },
          "indices": 17,
          "material": 0
        }
      ]
    },
    {
      "name": "Left leg",
      "primitives": [
        {
          "attributes": {
            "POSITION": 18,
            "NORMAL": 19
          },
          "indices": 20,
          "material": 2
        }
      ]
    },
    {
      "name": "Right leg",
      "primitives": [
        {
          "attributes": {
            "POSITION": 21,
            "NORMAL": 22
          },
          "indices": 23,
          "material": 2
        }
      ]
    },
    {
      "name": "Left shoe",
      "primitives": [
        {
          "attributes": {
            "POSITION": 24,
            "NORMAL": 25
          },
          "indices": 26,
          "material": 3
        }
      ]
    },
    {
      "name": "Right shoe",
      "primitives": [
        {
          "attributes": {
            "POSITION": 27,
            "NORMAL": 28
          },
          "indices": 29,
          "material": 3
        }
      ]
    },
    {
      "name": "Left shoe sole",
      "primitives": [
        {
          "attributes": {
            "POSITION": 30,
            "NORMAL": 31
          },
          "indices": 32,
          "material": 7
        }
      ]
    },
    {
      "name": "Right shoe sole",
      "primitives": [
        {
          "attributes": {
            "POSITION": 33,
            "NORMAL": 34
          },
          "indices": 35,
          "material": 7
        }
      ]
    },
    {
      "name": "Left eye white",
      "primitives": [
        {
          "attributes": {
            "POSITION": 36,
            "NORMAL": 37
          },
          "indices": 38,
          "material": 4
        }
      ]
    },
    {
      "name": "Right eye white",
      "primitives": [
        {
          "attributes": {
            "POSITION": 39,
            "NORMAL": 40
          },
          "indices": 41,
          "material": 4
        }
      ]
    },
    {
      "name": "Left iris",
      "primitives": [
        {
          "attributes": {
            "POSITION": 42,
            "NORMAL": 43
          },
          "indices": 44,
          "material": 5
        }
      ]
    },
    {
      "name": "Right iris",
      "primitives": [
        {
          "attributes": {
            "POSITION": 45,
            "NORMAL": 46
          },
          "indices": 47,
          "material": 5
        }
      ]
    },
    {
      "name": "Nose",
      "primitives": [
        {
          "attributes": {
            "POSITION": 48,
            "NORMAL": 49
          },
          "indices": 50,
          "material": 0
        }
      ]
    },
    {
      "name": "Smile",
      "primitives": [
        {
          "attributes": {
            "POSITION": 51,
            "NORMAL": 52
          },
          "indices": 53,
          "material": 5
        }
      ]
    },
    {
      "name": "Left cheek",
      "primitives": [
        {
          "attributes": {
            "POSITION": 54,
            "NORMAL": 55
          },
          "indices": 56,
          "material": 6
        }
      ]
    },
    {
      "name": "Right cheek",
      "primitives": [
        {
          "attributes": {
            "POSITION": 57,
            "NORMAL": 58
          },
          "indices": 59,
          "material": 6
        }
      ]
    }
  ],
  "materials": [
    {
      "name": "Skin warm",
      "pbrMetallicRoughness": {
        "baseColorFactor": [
          0.95,
          0.56,
          0.39,
          1
        ],
        "metallicFactor": 0,
        "roughnessFactor": 0.52
      }
    },
    {
      "name": "Midnight hair",
      "pbrMetallicRoughness": {
        "baseColorFactor": [
          0.035,
          0.06,
          0.11,
          1
        ],
        "metallicFactor": 0,
        "roughnessFactor": 0.32
      }
    },
    {
      "name": "BAJA blue outfit",
      "pbrMetallicRoughness": {
        "baseColorFactor": [
          0.08,
          0.32,
          0.86,
          1
        ],
        "metallicFactor": 0,
        "roughnessFactor": 0.62
      }
    },
    {
      "name": "Shoe rubber",
      "pbrMetallicRoughness": {
        "baseColorFactor": [
          0.035,
          0.055,
          0.11,
          1
        ],
        "metallicFactor": 0,
        "roughnessFactor": 0.38
      }
    },
    {
      "name": "Eye white",
      "pbrMetallicRoughness": {
        "baseColorFactor": [
          0.97,
          0.99,
          1,
          1
        ],
        "metallicFactor": 0,
        "roughnessFactor": 0.2
      }
    },
    {
      "name": "Eye iris",
      "pbrMetallicRoughness": {
        "baseColorFactor": [
          0.025,
          0.05,
          0.09,
          1
        ],
        "metallicFactor": 0,
        "roughnessFactor": 0.25
      }
    },
    {
      "name": "Accent pink",
      "pbrMetallicRoughness": {
        "baseColorFactor": [
          1,
          0.27,
          0.48,
          1
        ],
        "metallicFactor": 0,
        "roughnessFactor": 0.45
      }
    },
    {
      "name": "Sole",
      "pbrMetallicRoughness": {
        "baseColorFactor": [
          0.78,
          0.84,
          0.92,
          1
        ],
        "metallicFactor": 0,
        "roughnessFactor": 0.44
      }
    }
  ],
  "buffers": [
    {
      "byteLength": 243072,
      "uri": "data:application/octet-stream;base64,"
    }
  ],
  "bufferViews": [
    {
      "buffer": 0,
      "byteOffset": 0,
      "byteLength": 5100,
      "target": 34962
    },
    {
      "buffer": 0,
      "byteOffset": 5100,
      "byteLength": 5100,
      "target": 34962
    },
    {
      "buffer": 0,
      "byteOffset": 10200,
      "byteLength": 4608,
      "target": 34963
    },
    {
      "buffer": 0,
      "byteOffset": 14808,
      "byteLength": 5100,
      "target": 34962
    },
    {
      "buffer": 0,
      "byteOffset": 19908,
      "byteLength": 5100,
      "target": 34962
    },
    {
      "buffer": 0,
      "byteOffset": 25008,
      "byteLength": 4608,
      "target": 34963
    },
    {
      "buffer": 0,
      "byteOffset": 29616,
      "byteLength": 5100,
      "target": 34962
    },
    {
      "buffer": 0,
      "byteOffset": 34716,
      "byteLength": 5100,
      "target": 34962
    },
    {
      "buffer": 0,
      "byteOffset": 39816,
      "byteLength": 4608,
      "target": 34963
    },
    {
      "buffer": 0,
      "byteOffset": 44424,
      "byteLength": 5100,
      "target": 34962
    },
    {
      "buffer": 0,
      "byteOffset": 49524,
      "byteLength": 5100,
      "target": 34962
    },
    {
      "buffer": 0,
      "byteOffset": 54624,
      "byteLength": 4608,
      "target": 34963
    },
    {
      "buffer": 0,
      "byteOffset": 59232,
      "byteLength": 528,
      "target": 34962
    },
    {
      "buffer": 0,
      "byteOffset": 59760,
      "byteLength": 528,
      "target": 34962
    },
    {
      "buffer": 0,
      "byteOffset": 60288,
      "byteLength": 480,
      "target": 34963
    },
    {
      "buffer": 0,
      "byteOffset": 60768,
      "byteLength": 528,
      "target": 34962
    },
    {
      "buffer": 0,
      "byteOffset": 61296,
      "byteLength": 528,
      "target": 34962
    },
    {
      "buffer": 0,
      "byteOffset": 61824,
      "byteLength": 480,
      "target": 34963
    },
    {
      "buffer": 0,
      "byteOffset": 62304,
      "byteLength": 528,
      "target": 34962
    },
    {
      "buffer": 0,
      "byteOffset": 62832,
      "byteLength": 528,
      "target": 34962
    },
    {
      "buffer": 0,
      "byteOffset": 63360,
      "byteLength": 480,
      "target": 34963
    },
    {
      "buffer": 0,
      "byteOffset": 63840,
      "byteLength": 528,
      "target": 34962
    },
    {
      "buffer": 0,
      "byteOffset": 64368,
      "byteLength": 528,
      "target": 34962
    },
    {
      "buffer": 0,
      "byteOffset": 64896,
      "byteLength": 480,
      "target": 34963
    },
    {
      "buffer": 0,
      "byteOffset": 65376,
      "byteLength": 5100,
      "target": 34962
    },
    {
      "buffer": 0,
      "byteOffset": 70476,
      "byteLength": 5100,
      "target": 34962
    },
    {
      "buffer": 0,
      "byteOffset": 75576,
      "byteLength": 4608,
      "target": 34963
    },
    {
      "buffer": 0,
      "byteOffset": 80184,
      "byteLength": 5100,
      "target": 34962
    },
    {
      "buffer": 0,
      "byteOffset": 85284,
      "byteLength": 5100,
      "target": 34962
    },
    {
      "buffer": 0,
      "byteOffset": 90384,
      "byteLength": 4608,
      "target": 34963
    },
    {
      "buffer": 0,
      "byteOffset": 94992,
      "byteLength": 5100,
      "target": 34962
    },
    {
      "buffer": 0,
      "byteOffset": 100092,
      "byteLength": 5100,
      "target": 34962
    },
    {
      "buffer": 0,
      "byteOffset": 105192,
      "byteLength": 4608,
      "target": 34963
    },
    {
      "buffer": 0,
      "byteOffset": 109800,
      "byteLength": 5100,
      "target": 34962
    },
    {
      "buffer": 0,
      "byteOffset": 114900,
      "byteLength": 5100,
      "target": 34962
    },
    {
      "buffer": 0,
      "byteOffset": 120000,
      "byteLength": 4608,
      "target": 34963
    },
    {
      "buffer": 0,
      "byteOffset": 124608,
      "byteLength": 5100,
      "target": 34962
    },
    {
      "buffer": 0,
      "byteOffset": 129708,
      "byteLength": 5100,
      "target": 34962
    },
    {
      "buffer": 0,
      "byteOffset": 134808,
      "byteLength": 4608,
      "target": 34963
    },
    {
      "buffer": 0,
      "byteOffset": 139416,
      "byteLength": 5100,
      "target": 34962
    },
    {
      "buffer": 0,
      "byteOffset": 144516,
      "byteLength": 5100,
      "target": 34962
    },
    {
      "buffer": 0,
      "byteOffset": 149616,
      "byteLength": 4608,
      "target": 34963
    },
    {
      "buffer": 0,
      "byteOffset": 154224,
      "byteLength": 5100,
      "target": 34962
    },
    {
      "buffer": 0,
      "byteOffset": 159324,
      "byteLength": 5100,
      "target": 34962
    },
    {
      "buffer": 0,
      "byteOffset": 164424,
      "byteLength": 4608,
      "target": 34963
    },
    {
      "buffer": 0,
      "byteOffset": 169032,
      "byteLength": 5100,
      "target": 34962
    },
    {
      "buffer": 0,
      "byteOffset": 174132,
      "byteLength": 5100,
      "target": 34962
    },
    {
      "buffer": 0,
      "byteOffset": 179232,
      "byteLength": 4608,
      "target": 34963
    },
    {
      "buffer": 0,
      "byteOffset": 183840,
      "byteLength": 5100,
      "target": 34962
    },
    {
      "buffer": 0,
      "byteOffset": 188940,
      "byteLength": 5100,
      "target": 34962
    },
    {
      "buffer": 0,
      "byteOffset": 194040,
      "byteLength": 4608,
      "target": 34963
    },
    {
      "buffer": 0,
      "byteOffset": 198648,
      "byteLength": 5100,
      "target": 34962
    },
    {
      "buffer": 0,
      "byteOffset": 203748,
      "byteLength": 5100,
      "target": 34962
    },
    {
      "buffer": 0,
      "byteOffset": 208848,
      "byteLength": 4608,
      "target": 34963
    },
    {
      "buffer": 0,
      "byteOffset": 213456,
      "byteLength": 5100,
      "target": 34962
    },
    {
      "buffer": 0,
      "byteOffset": 218556,
      "byteLength": 5100,
      "target": 34962
    },
    {
      "buffer": 0,
      "byteOffset": 223656,
      "byteLength": 4608,
      "target": 34963
    },
    {
      "buffer": 0,
      "byteOffset": 228264,
      "byteLength": 5100,
      "target": 34962
    },
    {
      "buffer": 0,
      "byteOffset": 233364,
      "byteLength": 5100,
      "target": 34962
    },
    {
      "buffer": 0,
      "byteOffset": 238464,
      "byteLength": 4608,
      "target": 34963
    }
  ],
  "accessors": [
    {
      "bufferView": 0,
      "componentType": 5126,
      "count": 425,
      "type": "VEC3",
      "min": [
        -0.67,
        0.8500000000000001,
        -0.6
      ],
      "max": [
        0.67,
        2.25,
        0.6
      ]
    },
    {
      "bufferView": 1,
      "componentType": 5126,
      "count": 425,
      "type": "VEC3",
      "min": [
        -1,
        -1,
        -1
      ],
      "max": [
        1,
        1,
        1
      ]
    },
    {
      "bufferView": 2,
      "componentType": 5123,
      "count": 2304,
      "type": "SCALAR"
    },
    {
      "bufferView": 3,
      "componentType": 5126,
      "count": 425,
      "type": "VEC3",
      "min": [
        -0.71,
        1.55,
        -0.61
      ],
      "max": [
        0.71,
        2.41,
        0.63
      ]
    },
    {
      "bufferView": 4,
      "componentType": 5126,
      "count": 425,
      "type": "VEC3",
      "min": [
        -1,
        -1,
        -1
      ],
      "max": [
        1,
        1,
        1
      ]
    },
    {
      "bufferView": 5,
      "componentType": 5123,
      "count": 2304,
      "type": "SCALAR"
    },
    {
      "bufferView": 6,
      "componentType": 5126,
      "count": 425,
      "type": "VEC3",
      "min": [
        -0.58,
        1.7100000000000002,
        -0.68
      ],
      "max": [
        0.58,
        2.0300000000000002,
        -0.36
      ]
    },
    {
      "bufferView": 7,
      "componentType": 5126,
      "count": 425,
      "type": "VEC3",
      "min": [
        -1,
        -1,
        -1
      ],
      "max": [
        1,
        1,
        1
      ]
    },
    {
      "bufferView": 8,
      "componentType": 5123,
      "count": 2304,
      "type": "SCALAR"
    },
    {
      "bufferView": 9,
      "componentType": 5126,
      "count": 425,
      "type": "VEC3",
      "min": [
        -0.66,
        -0.030000000000000027,
        -0.49
      ],
      "max": [
        0.66,
        1.33,
        0.49
      ]
    },
    {
      "bufferView": 10,
      "componentType": 5126,
      "count": 425,
      "type": "VEC3",
      "min": [
        -1,
        -1,
        -1
      ],
      "max": [
        1,
        1,
        1
      ]
    },
    {
      "bufferView": 11,
      "componentType": 5123,
      "count": 2304,
      "type": "SCALAR"
    },
    {
      "bufferView": 12,
      "componentType": 5126,
      "count": 44,
      "type": "VEC3",
      "min": [
        -0.83,
        0.36000000000000004,
        -0.14
      ],
      "max": [
        -0.5499999999999999,
        1,
        0.14
      ]
    },
    {
      "bufferView": 13,
      "componentType": 5126,
      "count": 44,
      "type": "VEC3",
      "min": [
        -1,
        -1,
        -1
      ],
      "max": [
        1,
        1,
        1
      ]
    },
    {
      "bufferView": 14,
      "componentType": 5123,
      "count": 240,
      "type": "SCALAR"
    },
    {
      "bufferView": 15,
      "componentType": 5126,
      "count": 44,
      "type": "VEC3",
      "min": [
        0.5499999999999999,
        0.36000000000000004,
        -0.14
      ],
      "max": [
        0.83,
        1,
        0.14
      ]
    },
    {
      "bufferView": 16,
      "componentType": 5126,
      "count": 44,
      "type": "VEC3",
      "min": [
        -1,
        -1,
        -1
      ],
      "max": [
        1,
        1,
        1
      ]
    },
    {
      "bufferView": 17,
      "componentType": 5123,
      "count": 240,
      "type": "SCALAR"
    },
    {
      "bufferView": 18,
      "componentType": 5126,
      "count": 44,
      "type": "VEC3",
      "min": [
        -0.43,
        -0.35000000000000003,
        -0.18
      ],
      "max": [
        -0.07,
        0.31,
        0.18
      ]
    },
    {
      "bufferView": 19,
      "componentType": 5126,
      "count": 44,
      "type": "VEC3",
      "min": [
        -1,
        -1,
        -1
      ],
      "max": [
        1,
        1,
        1
      ]
    },
    {
      "bufferView": 20,
      "componentType": 5123,
      "count": 240,
      "type": "SCALAR"
    },
    {
      "bufferView": 21,
      "componentType": 5126,
      "count": 44,
      "type": "VEC3",
      "min": [
        0.07,
        -0.35000000000000003,
        -0.18
      ],
      "max": [
        0.43,
        0.31,
        0.18
      ]
    },
    {
      "bufferView": 22,
      "componentType": 5126,
      "count": 44,
      "type": "VEC3",
      "min": [
        -1,
        -1,
        -1
      ],
      "max": [
        1,
        1,
        1
      ]
    },
    {
      "bufferView": 23,
      "componentType": 5123,
      "count": 240,
      "type": "SCALAR"
    },
    {
      "bufferView": 24,
      "componentType": 5126,
      "count": 425,
      "type": "VEC3",
      "min": [
        -0.6200000000000001,
        -0.61,
        -0.46
      ],
      "max": [
        0.06,
        -0.29000000000000004,
        0.3
      ]
    },
    {
      "bufferView": 25,
      "componentType": 5126,
      "count": 425,
      "type": "VEC3",
      "min": [
        -1,
        -1,
        -1
      ],
      "max": [
        1,
        1,
        1
      ]
    },
    {
      "bufferView": 26,
      "componentType": 5123,
      "count": 2304,
      "type": "SCALAR"
    },
    {
      "bufferView": 27,
      "componentType": 5126,
      "count": 425,
      "type": "VEC3",
      "min": [
        -0.06,
        -0.61,
        -0.46
      ],
      "max": [
        0.6200000000000001,
        -0.29000000000000004,
        0.3
      ]
    },
    {
      "bufferView": 28,
      "componentType": 5126,
      "count": 425,
      "type": "VEC3",
      "min": [
        -1,
        -1,
        -1
      ],
      "max": [
        1,
        1,
        1
      ]
    },
    {
      "bufferView": 29,
      "componentType": 5123,
      "count": 2304,
      "type": "SCALAR"
    },
    {
      "bufferView": 30,
      "componentType": 5126,
      "count": 425,
      "type": "VEC3",
      "min": [
        -0.63,
        -0.555,
        -0.48
      ],
      "max": [
        0.06999999999999995,
        -0.445,
        0.30000000000000004
      ]
    },
    {
      "bufferView": 31,
      "componentType": 5126,
      "count": 425,
      "type": "VEC3",
      "min": [
        -1,
        -1,
        -1
      ],
      "max": [
        1,
        1,
        1
      ]
    },
    {
      "bufferView": 32,
      "componentType": 5123,
      "count": 2304,
      "type": "SCALAR"
    },
    {
      "bufferView": 33,
      "componentType": 5126,
      "count": 425,
      "type": "VEC3",
      "min": [
        -0.06999999999999995,
        -0.555,
        -0.48
      ],
      "max": [
        0.63,
        -0.445,
        0.30000000000000004
      ]
    },
    {
      "bufferView": 34,
      "componentType": 5126,
      "count": 425,
      "type": "VEC3",
      "min": [
        -1,
        -1,
        -1
      ],
      "max": [
        1,
        1,
        1
      ]
    },
    {
      "bufferView": 35,
      "componentType": 5123,
      "count": 2304,
      "type": "SCALAR"
    },
    {
      "bufferView": 36,
      "componentType": 5126,
      "count": 425,
      "type": "VEC3",
      "min": [
        -0.36,
        1.3800000000000001,
        -0.6449999999999999
      ],
      "max": [
        -0.1,
        1.7,
        -0.49499999999999994
      ]
    },
    {
      "bufferView": 37,
      "componentType": 5126,
      "count": 425,
      "type": "VEC3",
      "min": [
        -1,
        -1,
        -1
      ],
      "max": [
        1,
        1,
        1
      ]
    },
    {
      "bufferView": 38,
      "componentType": 5123,
      "count": 2304,
      "type": "SCALAR"
    },
    {
      "bufferView": 39,
      "componentType": 5126,
      "count": 425,
      "type": "VEC3",
      "min": [
        0.1,
        1.3800000000000001,
        -0.6449999999999999
      ],
      "max": [
        0.36,
        1.7,
        -0.49499999999999994
      ]
    },
    {
      "bufferView": 40,
      "componentType": 5126,
      "count": 425,
      "type": "VEC3",
      "min": [
        -1,
        -1,
        -1
      ],
      "max": [
        1,
        1,
        1
      ]
    },
    {
      "bufferView": 41,
      "componentType": 5123,
      "count": 2304,
      "type": "SCALAR"
    },
    {
      "bufferView": 42,
      "componentType": 5126,
      "count": 425,
      "type": "VEC3",
      "min": [
        -0.29500000000000004,
        1.455,
        -0.673
      ],
      "max": [
        -0.165,
        1.625,
        -0.603
      ]
    },
    {
      "bufferView": 43,
      "componentType": 5126,
      "count": 425,
      "type": "VEC3",
      "min": [
        -1,
        -1,
        -1
      ],
      "max": [
        1,
        1,
        1
      ]
    },
    {
      "bufferView": 44,
      "componentType": 5123,
      "count": 2304,
      "type": "SCALAR"
    },
    {
      "bufferView": 45,
      "componentType": 5126,
      "count": 425,
      "type": "VEC3",
      "min": [
        0.165,
        1.455,
        -0.673
      ],
      "max": [
        0.29500000000000004,
        1.625,
        -0.603
      ]
    },
    {
      "bufferView": 46,
      "componentType": 5126,
      "count": 425,
      "type": "VEC3",
      "min": [
        -1,
        -1,
        -1
      ],
      "max": [
        1,
        1,
        1
      ]
    },
    {
      "bufferView": 47,
      "componentType": 5123,
      "count": 2304,
      "type": "SCALAR"
    },
    {
      "bufferView": 48,
      "componentType": 5126,
      "count": 425,
      "type": "VEC3",
      "min": [
        -0.07,
        1.335,
        -0.655
      ],
      "max": [
        0.07,
        1.4449999999999998,
        -0.565
      ]
    },
    {
      "bufferView": 49,
      "componentType": 5126,
      "count": 425,
      "type": "VEC3",
      "min": [
        -1,
        -1,
        -1
      ],
      "max": [
        1,
        1,
        1
      ]
    },
    {
      "bufferView": 50,
      "componentType": 5123,
      "count": 2304,
      "type": "SCALAR"
    },
    {
      "bufferView": 51,
      "componentType": 5126,
      "count": 425,
      "type": "VEC3",
      "min": [
        -0.13,
        1.2550000000000001,
        -0.615
      ],
      "max": [
        0.13,
        1.325,
        -0.565
      ]
    },
    {
      "bufferView": 52,
      "componentType": 5126,
      "count": 425,
      "type": "VEC3",
      "min": [
        -1,
        -1,
        -1
      ],
      "max": [
        1,
        1,
        1
      ]
    },
    {
      "bufferView": 53,
      "componentType": 5123,
      "count": 2304,
      "type": "SCALAR"
    },
    {
      "bufferView": 54,
      "componentType": 5126,
      "count": 425,
      "type": "VEC3",
      "min": [
        -0.54,
        1.325,
        -0.595
      ],
      "max": [
        -0.32,
        1.4349999999999998,
        -0.5449999999999999
      ]
    },
    {
      "bufferView": 55,
      "componentType": 5126,
      "count": 425,
      "type": "VEC3",
      "min": [
        -1,
        -1,
        -1
      ],
      "max": [
        1,
        1,
        1
      ]
    },
    {
      "bufferView": 56,
      "componentType": 5123,
      "count": 2304,
      "type": "SCALAR"
    },
    {
      "bufferView": 57,
      "componentType": 5126,
      "count": 425,
      "type": "VEC3",
      "min": [
        0.32,
        1.325,
        -0.595
      ],
      "max": [
        0.54,
        1.4349999999999998,
        -0.5449999999999999
      ]
    },
    {
      "bufferView": 58,
      "componentType": 5126,
      "count": 425,
      "type": "VEC3",
      "min": [
        -1,
        -1,
        -1
      ],
      "max": [
        1,
        1,
        1
      ]
    },
    {
      "bufferView": 59,
      "componentType": 5123,
      "count": 2304,
      "type": "SCALAR"
    }
  ]
}